# xmcd CD database file
#
# Track frame offsets:
#	150
#	16043
#	33253
#	51345
#	65063
#	80590
#	98310
#
# Disc length: 1553 seconds
#
# Revision: 0
# Processed by: cddbd v1.5PL3 Copyright (c) Steve Scherf et al.
# Submitted via: CDex 1.51
#
DISCID=4b060f07
DTITLE=青江三奈 - 決定版　青江三奈　2
DYEAR=2004
DGENRE=Other
TTITLE0=眠られぬ夜のブルース
TTITLE1=昭和おんなブルース
TTITLE2=長崎未練
TTITLE3=木屋町の女
TTITLE4=大阪ブルース
TTITLE5=太田ブルース
TTITLE6=ベイブリッジ・ブルース
EXTD=YEAR: 2004
EXTT0=
EXTT1=
EXTT2=
EXTT3=
EXTT4=
EXTT5=
EXTT6=
PLAYORDER=
